# xmcd
#
# Track frame offsets:
#	150
#	13582
#	29919
#	44451
#	56775
#	74347
#	87494
#	113887
#	130069
#	146311
#	156402
#
# Disc length: 2304 seconds
#
# Revision: 1
# Processed by: cddbd v1.4PL0 Copyright (c) Steve Scherf et al.
# Submitted via: audiograbber 1.81.02
#
DISCID=a008fe0b
DTITLE=Mark Weigle - Out of the Loop
DYEAR=2002
DGENRE=Country
TTITLE0=In the Last 5 Minutes
TTITLE1=I Remember
TTITLE2=Bears
TTITLE3=Out
TTITLE4=Blue Eyes to Brown Eyes
TTITLE5=Cody
TTITLE6=The Difference
TTITLE7=Wish You Were Here
TTITLE8=Us Both
TTITLE9=Love Your Body Like It Is
TTITLE10=Hidden Live Track
EXTD=
EXTT0=
EXTT1=
EXTT2=
EXTT3=
EXTT4=
EXTT5=
EXTT6=
EXTT7=
EXTT8=
EXTT9=
EXTT10=
PLAYORDER=
